Patient4_TMGait_0pt7_01_right_06_EMG.mot
version=1
nRows=33
nColumns=33
inDegrees=no
endheader
time	1LAddLong	2LGlutMax	3LGlutMed	4LIliopsoas	5LSemiMemb	6LBicFemLong	7LRecFem	8LVastMed	9LVastLat	10LGasMed	11LTibAnt	12lTibPost	13LPeroneusLong	14LSol	15LExtDigLong	16LFlexDigLong	17RAddLong	18RGlutMax	19RGlutMed	20RIliopsoas	21RSemiMemb	22RBicFemLong	23RRecFem	24RVastMed	25RVastLat	26RGasMed	27RTibAnt	28RTibPost	29RPeroneusLong	30RSol	31RExtDigLong	32RFlexDigLong
6.35	-0.005798	-0.005493	-0.081177	-0.000916	-0.025482	-0.003815	0.14114	-0.009308	0.10391	0.014648	-0.12909	0.007019	-0.17242	-0.059967	-0.041351	-0.000916	0.011292	0.18555	0.058899	-0.12451	0.04776	-0.16739	-0.09552	0.21118	-0.066681	-0.006561	0.15228	-0.008698	-0.47394	-0.034332	-0.004425	-0.002899
6.351	-0.004272	0.001373	0.046997	0.004425	-0.022278	0.016632	0.19028	-0.008087	0.079651	0.015411	-0.053101	-0.002747	-0.19394	-0.035095	0.079956	-0.005035	0.036926	0.11871	-0.061035	-0.072632	0.048981	-0.14404	-0.041351	0.35248	0.015564	-0.010223	0.006409	-0.00885	0.29221	-0.04425	-0.00351	0.001831
6.352	-0.011139	-0.04715	-0.070801	0.014191	-0.011597	0.075531	0.22461	-0.010529	0.088043	0.000153	0.037994	0.001526	-0.18997	-0.070953	0.12421	-0.014191	0.050659	0.059357	0.1004	-0.13107	0.045776	-0.1535	0.15625	0.30579	0.022736	-0.009003	-0.07431	-0.005646	0.48981	0.003967	-0.003357	0.00351
6.353	-0.015717	-0.01358	-0.009766	0.000458	-0.000153	-0.001526	0.20828	-0.00473	0.059662	-0.015411	-0.079498	0.003662	-0.008698	-0.18524	0.25085	-0.006714	0.050812	0.031433	0.38483	-0.20721	0.048523	-0.1329	0.34836	0.19165	0.014801	-0.007172	0.22812	-0.00885	0.31525	-0.007172	-0.00351	-0.007477
6.354	-0.017548	-0.041962	-0.021667	-0.002899	-0.0177	0.014343	0.16907	0.014954	-0.004578	-0.024872	-0.25848	-0.002136	0.47867	-0.23804	0.28442	-0.00412	0.022736	-0.028839	0.27512	-0.21606	0.039673	-0.13062	-0.16907	0.17899	0.028992	-0.00412	0.47836	-0.010071	0.03479	-0.066376	-0.004578	-0.007782
6.355	-0.019226	-0.003204	-0.021515	0.02594	-0.030975	-0.035706	0.14145	0.019684	-0.032654	-0.023804	-0.15945	-0.007782	0.48538	-0.16419	0.29862	0.005035	-0.011444	-0.040588	0.11917	-0.12268	0.03891	-0.11719	-0.3183	0.159	0.032806	-0.011749	0.73151	-0.008392	-0.15076	-0.053711	-0.003662	0.002747
6.356	-0.016174	-0.002899	-0.075836	0.025482	-0.011597	-0.011444	0.18494	0.012512	-0.027161	0.000763	-0.040436	0.003815	0.067444	-0.039368	0.041504	0.009766	-0.015259	-0.14282	0.10651	0.0354	0.029755	-0.11078	0.010376	0.14557	0.045776	-0.014648	0.85159	-0.009766	-0.16266	0.003204	-0.002747	0.003204
6.357	-0.012512	0.004883	-0.075531	0.006104	-0.000305	-0.010834	0.22278	0.007019	0.016632	-0.029755	-0.067902	0.014038	-0.22614	0.040894	-0.12787	0.007782	-0.032806	-0.1648	0.1918	0.20569	0.033722	-0.10361	0.39246	0.090637	0.045166	-0.009308	0.47516	-0.003815	-0.16022	-0.00824	-0.003967	-0.014648
6.358	-0.002747	0.007935	-0.086517	0.003357	0.062561	-0.024109	0.20966	-0.012054	0.047913	-0.001373	0.004425	0.002899	-0.56152	0.012817	-0.25055	0.001831	-0.041046	-0.20493	0.15182	0.38437	0.038452	-0.093842	0.59937	0.10544	0.054321	-0.002899	-0.19959	-0.005035	-0.20599	-0.057831	0.003662	-0.00824
6.359	0.003052	-0.007477	-0.088501	-0.010834	0.031281	-0.029449	0.11795	-0.008545	0.036926	0.015869	0.090637	0.008392	0.032501	-0.1239	-0.30731	-0.021667	-0.028839	-0.25681	0.23224	0.4776	0.029602	-0.081024	0.81924	0.061798	0.033569	0.007324	-0.55481	-0.007019	0.066681	-0.097504	-0.003204	0.004578
6.36	0.005341	-0.027771	-0.12177	-0.003357	0.00473	-0.010071	0.008698	-0.000763	0.094757	-0.036621	-0.011444	0.003052	0.37567	-0.081024	-0.25284	-0.011902	-0.005798	-0.2861	0.005798	0.36133	0.032654	-0.10284	0.79697	0.017548	0.011444	0.010376	-0.4042	-0.004425	0.10849	-0.18982	-0.001678	0.000916
6.361	0.001984	-0.011749	-0.074768	0.011139	0.005188	0.035706	0.10864	0.01358	0.058899	-0.008545	-0.005798	0.007019	0.004272	-0.18616	-0.091858	-0.005035	0.031586	-0.27512	0.052643	0.24445	0.031128	-0.081635	0.78522	-0.001373	-0.013275	0.015869	-0.7959	-0.011902	-0.036316	-0.21423	-0.000305	-0.006256
6.362	-0.002441	-0.030212	0.027161	0.007477	0.01297	-0.02533	0.079041	0.017242	0.011139	0.002136	0.044861	0.002899	-0.23926	-0.15289	0.12451	0.000458	0.026093	-0.32333	0.15121	0.080719	0.028687	-0.083008	0.59998	-0.078278	-0.042572	-0.002747	-0.64331	-0.005341	-0.14145	-0.063629	-0.001526	-0.007629
6.363	-0.002289	-0.049133	-0.008545	0.014648	-0.012207	-0.07431	0.085602	0.012512	0.077209	-0.025177	0.041809	-0.00351	-0.043793	-0.099335	0.15839	0.001373	0.0177	-0.32761	0.4248	0.051117	0.024414	-0.088959	0.11795	-0.24872	-0.071564	-0.000763	-0.48157	-0.002136	0.01358	-0.050507	-0.002441	-0.007629
6.364	-0.006561	-0.074005	-0.077057	0.001526	-0.067749	-0.024109	0.054932	0.012207	0.085907	0.001984	0.071564	0.001526	0.089722	-0.082245	0.27283	-0.009308	0.006866	-0.44205	0.064697	0.1358	0.014954	-0.084991	-0.6337	-0.41809	-0.11948	0.003662	-0.48798	-0.004883	0.066071	-0.08728	-0.00061	-0.006561
6.365	-0.012817	-0.005646	-0.036774	0.006409	-0.10956	0.040741	0.12421	0.011597	0.12268	0.006714	0.078125	0.000153	-0.019989	0.034637	0.53909	0.015564	-0.005188	-0.42007	-0.059052	0.06424	0.01709	-0.069733	-0.86563	-0.43472	-0.089569	0.007019	-0.26916	-0.004425	0.12985	-0.11459	-0.001068	-0.004425
6.366	-0.007324	-0.020599	0.036774	0.009766	-0.02533	0.010376	0.20035	-0.004272	0.09201	0.014801	0.10757	0.006256	-0.16769	0.010223	0.15259	0.010376	-0.010681	-0.44022	0.094604	-0.043945	0.02594	-0.077515	-1.1003	-0.51224	-0.076904	0.003052	0.18494	-0.00412	0.25024	-0.10346	0.009918	-0.005341
6.367	-0.006409	-0.017853	0.051422	0.018463	0.13748	-0.0177	0.22858	-0.001221	0.039063	0.043945	0.17975	0.007324	-0.070801	-0.027161	0.22949	0.004425	-0.014648	-0.43793	0.079041	-0.096436	0.018158	-0.081482	-0.66437	-0.45715	-0.059052	0	0.19882	-0.005188	0.092468	-0.028381	-0.002289	0.001831
6.368	-0.007172	-0.009003	0.099335	0.011902	0.08194	0.003204	0.14572	0.002289	0.011292	-0.055695	0.11749	0.008087	0.56091	0.08316	0.10407	-0.003815	-0.004425	-0.43213	-0.042267	-0.10391	0.011902	-0.121	-0.31967	-0.40955	-0.052338	-0.006714	0.29846	-0.007629	-0.18433	-0.02243	-0.003815	-0.004272
6.369	-0.022736	-0.024719	0.09964	-0.00412	0.001984	-0.011444	0.14435	0.005646	0.03952	-0.09903	-0.20889	0.003052	0.72464	0.23453	0.73151	-0.003967	-0.009766	-0.4245	0.23148	-0.12009	0.016937	-0.11551	-0.24628	-0.39581	-0.06424	-0.016022	0.31937	-0.000916	-0.28183	0.023041	-0.003662	0.002747
6.37	-0.002594	-0.035248	0.058899	-0.015717	-0.012817	-0.095367	0.23468	0.00946	-0.011597	-0.074768	-0.010223	-0.006561	0.29907	0.28107	-0.1593	0.00885	-0.005798	-0.39642	1.0196	-0.1976	0.002747	-0.11704	0.054321	-0.1857	-0.069733	-0.013428	-0.1001	-0.00412	-0.37781	0.13107	-0.001373	-0.000305
6.371	-0.012665	-0.064545	0.016785	0.012512	-0.007172	-0.24429	0.25726	0.019836	-0.015564	-0.030823	0.15274	-0.002594	0.21744	0.18494	-0.37994	0.000153	-0.007935	-0.35034	0.91049	-0.11856	0.010681	-0.11169	0.32669	0.007782	-0.061493	-0.014191	-0.14008	-0.003357	-0.18524	0.11078	-0.001068	-0.006104
6.372	-0.006866	-0.11185	0.025482	0.017548	0.063782	-0.094147	0.22766	0.009003	0.073547	-0.031891	0.083771	0.007172	-0.11063	0.075684	-0.40726	0.019073	-0.007782	-0.35629	0.25314	-0.16724	0.016479	-0.081787	0.29022	-0.00351	0.007629	-0.024414	0.04364	-0.006866	-0.10437	0.071106	-0.003357	-0.007629
6.373	0.00885	-0.11978	0.041656	0.000763	0.054169	-0.013733	0.20676	-0.009766	0.044098	-0.00412	-0.064087	-0.005493	-0.41687	-0.014343	-0.53772	0.004272	-0.006714	-0.34317	0.15243	-0.14008	0.016785	-0.064087	0.45181	0.082703	-0.001221	-0.017242	0.14618	-0.003967	0.22858	0.081635	-0.002136	-0.001068
6.374	0.016022	-0.18036	0.083008	-0.012817	0.005798	-0.013428	0.072327	-0.009308	0.048218	-0.002136	-0.15152	-0.000916	0.00824	-0.19608	-0.32837	0.001831	-0.007629	-0.31647	0.30075	-0.082397	0.021515	-0.060883	0.53085	0.18112	-0.027161	-0.016022	0.15762	-0.006409	0.46509	-0.055237	-0.002747	-0.014801
6.375	0.022888	-0.16724	-0.029297	-0.001831	-0.015411	0.025787	0.091858	0.008698	0.054016	0.023499	-0.10773	0.012817	0.11673	-0.27069	-0.23712	-0.006409	-0.026245	-0.32379	0.16083	0.11978	0.025482	-0.075378	0.46417	0.17029	-0.067139	-0.019531	0.22736	-0.00412	0.25681	-0.10635	-0.000763	-0.007172
6.376	0.010529	-0.17777	-0.11688	0.011749	-0.02594	0.069275	0.15778	0.011292	-0.029297	-0.036469	0.039825	0.00412	0.04303	-0.27359	-0.11353	-0.000305	-0.018921	-0.28961	0.24292	0.3125	0.020599	-0.073242	0.70847	0.17532	-0.026245	-0.020752	0.23224	-0.006409	-0.16739	-0.080109	-0.007019	-0.010681
6.377	-0.002289	-0.16205	-0.038452	0.001526	0.016785	0.028381	0.2269	0.008087	-0.036926	0.000916	0.063171	0.010529	-0.3154	-0.30579	-0.17731	-0.017548	-0.030365	-0.29465	0.31265	0.28	0.010681	-0.067291	0.8522	0.13046	0.03006	-0.013428	-0.027466	-0.00412	-0.033417	-0.004578	-0.00885	-0.008698
6.378	0.005951	-0.14664	0.088196	-0.010681	0.093079	-0.036774	0.18295	0.006409	0.11292	0.010834	-0.070496	-0.008698	-0.092621	-0.2179	-0.061188	-0.006866	-0.027313	-0.31632	0.5455	0.17792	0.019073	-0.057068	0.77866	0.13016	0.055542	-0.00946	-0.23102	-0.007477	-0.43106	-0.014648	-0.004272	-0.00885
6.379	0.01709	-0.1683	0.060883	0.012054	0.092163	-0.091095	0.2034	-0.004883	0.12314	0.01236	-0.055847	0.008698	-0.16632	-0.13519	-0.26871	0.015106	-0.018463	-0.3392	0.62515	0.073547	0.014648	-0.055389	0.44037	0.14191	0.055084	-0.00885	-0.07843	-0.005798	-0.37552	-0.054626	-0.00473	-0.014038
6.38	0.007629	-0.17364	0.028992	0.018616	0.063324	-0.12619	0.20615	-0.028839	0.095978	0.019379	0.029449	0.016022	0.098724	-0.19699	0.061188	0.009155	-0.015259	-0.31662	0.52414	0.001068	0.012054	-0.05661	0.30075	0.050354	0.034637	-0.001526	0.12894	-0.007629	-0.20935	-0.003204	-0.003815	0.000153
6.381	0.012665	-0.19684	0.04425	0.003967	0.022888	-0.12558	0.11444	-0.016479	0.01709	0.017853	0.093079	0.001831	0.15457	-0.25986	0.29221	0.010376	-0.02121	-0.32867	0.33402	0.043945	0.012512	-0.052338	0.29327	0.007629	0.033112	-0.006256	-0.061035	-0.004425	-0.21225	0.10269	-0.003204	-0.016632
6.382	0.003662	-0.18951	0.13443	-0.010376	0.026245	-0.073853	0.1532	-0.005493	-0.015259	0.033569	0.08728	-0.005646	-0.13825	-0.075836	0.44205	0.008392	-0.010223	-0.32776	0.28793	0.18265	0.017853	-0.04837	0.061493	0.15167	0.046997	-0.010223	-0.19928	-0.008392	0.25299	0.091095	-0.002289	-0.00473
